# xmcd
#
# Track frame offsets: 
#        150
#        16107
#        32197
#        50120
#        64792
#        90087
#        105150
#        124590
#        144020
#        160097
#        179500
#        197507
#        223755
#        239882
#        251277
#        268767
#        287102
#        306932
#
# Disc length: 4451 seconds
#
# Revision: 14
# Processed by: cddbd v1.5.2PL0 Copyright (c) Steve Scherf et al.
# Submitted via: ExactAudioCopy v1.3
#
DISCID=f8116112
DTITLE=Julio Iglesias - My Life: The Greatest Hits [CD1)
DYEAR=1998
DGENRE=Pop
TTITLE0=Julio Iglesias and Willie Nelson - To All The Girls I've Loved B
TTITLE0=efore 
TTITLE1=Moralito (La Gota Fria)
TTITLE2=Julio Iglesias and Diana Ross - All Of You
TTITLE3=Crazy
TTITLE4=Julio Iglesias and Stevie Wonder - My Love
TTITLE5=Can't Help Falling In Love
TTITLE6=Vincent (Starry Starry Night)
TTITLE7=When I Need You
TTITLE8=Crazy In Love
TTITLE9=Julio Iglesias and Sting - Fragile
TTITLE10=Julio Iglesias and Dolly Parton - When You Tell Me That You Lov
TTITLE10=e Me
TTITLE11=Caruso
TTITLE12=Julio Iglesias and All 4 One - Smoke Gets In Your Eyes
TTITLE13=Julio Iglesias and Frank Sinatra - Summer Wind
TTITLE14=Por El Amor De Una Mujer
TTITLE15=Moonlight Lady
TTITLE16=Julio Iglesias and Paul Anka - My Way (A Mi Manera)
TTITLE17=Me Va Me Va
EXTD=YEAR: 1998
EXTT0=
EXTT1=
EXTT2=
EXTT3=
EXTT4=
EXTT5=
EXTT6=
EXTT7=
EXTT8=
EXTT9=
EXTT10=
EXTT11=
EXTT12=
EXTT13=
EXTT14=
EXTT15=
EXTT16=
EXTT17=
PLAYORDER=
